<?xml version="1.0" encoding="utf-8"?>
<svg width="205px" height="63px" viewBox="0 0 205 63" version="1.1" xmlns:xlink="http://www.w3.org/1999/xlink" xmlns="http://www.w3.org/2000/svg">
  <defs>
    <filter filterUnits="userSpaceOnUse" color-interpolation-filters="sRGB" id="filter_1">
      <feFlood flood-opacity="0" result="BackgroundImageFix" />
      <feColorMatrix in="SourceAlpha" type="matrix" values="0 0 0 0 0 0 0 0 0 0 0 0 0 0 0 0 0 0 127 0" />
      <feOffset dx="-3" dy="3" />
      <feGaussianBlur stdDeviation="0" />
      <feColorMatrix type="matrix" values="0 0 0 0 0.9098039 0 0 0 0 0.54509807 0 0 0 0 1 0 0 0 1 0" />
      <feBlend mode="normal" in2="BackgroundImageFix" result="effect0_dropShadow" />
      <feBlend mode="normal" in="SourceGraphic" in2="effect0_dropShadow" result="shape" />
    </filter>
  </defs>
  <g id="Xela" fill="#FFFFFF" filter="url(#filter_1)" transform="translate(3 0)">
    <path d="M32.352 54.4847L48.144 12.7247L54.048 12.7247L38.256 54.4847L32.352 54.4847ZM127.368 44.7167Q129.648 47.3807 134.16 47.3807Q135.264 47.3807 136.176 47.2847Q137.088 47.1887 137.904 47.0207Q138.72 46.8527 139.536 46.6127Q140.352 46.3727 141.312 46.0847L139.728 40.9007Q138.624 41.3327 137.736 41.5007Q136.848 41.6687 136.032 41.6687Q135.264 41.6687 134.568 41.4767Q133.872 41.2847 133.32 40.8287Q132.768 40.3727 132.456 39.6287Q132.144 38.8847 132.144 37.7807L132.144 13.1567L117.6 13.1567L117.6 18.7247L125.088 18.7247L125.088 37.4927Q125.088 42.0527 127.368 44.7167ZM67.584 30.7247L58.464 46.8047L66 46.8047L69.264 40.4207Q69.84 39.1727 70.416 37.9487Q70.992 36.7247 71.568 35.2847L71.76 35.2847Q72.432 36.7247 73.008 37.9487Q73.584 39.1727 74.256 40.4207L77.664 46.8047L85.536 46.8047L76.416 31.0607L85.008 15.5087L77.424 15.5087L74.64 21.4127Q74.112 22.5167 73.608 23.7407Q73.104 24.9647 72.528 26.4527L72.336 26.4527Q71.616 24.9647 71.04 23.7407Q70.464 22.5167 69.936 21.4127L66.912 15.5087L58.992 15.5087L67.584 30.7247ZM24.096 45.3167L5.568 33.3167L5.568 28.4207L24.096 16.4207L24.096 22.8047L11.376 30.7727L11.376 30.9647L24.096 38.9327L24.096 45.3167ZM177.504 38.9327L177.504 45.3167L196.032 33.3167L196.032 28.4207L177.504 16.4207L177.504 22.8047L190.224 30.7727L190.224 30.9647L177.504 38.9327ZM102.24 47.3807Q99.456 47.3807 97.032 46.5407Q94.608 45.7007 92.832 44.1167Q91.056 42.5327 90.048 40.2047Q89.04 37.8767 89.04 34.9007Q89.04 31.9727 90.072 29.6447Q91.104 27.3167 92.832 25.7087Q94.56 24.1007 96.792 23.2607Q99.024 22.4207 101.424 22.4207Q104.16 22.4207 106.272 23.2847Q108.384 24.1487 109.8 25.6847Q111.216 27.2207 111.936 29.3087Q112.656 31.3967 112.656 33.8447Q112.656 34.8047 112.536 35.6927Q112.416 36.5807 112.32 37.0127L96.096 37.0127Q96.624 39.6047 98.448 40.8047Q100.272 42.0047 103.2 42.0047Q104.832 42.0047 106.296 41.5727Q107.76 41.1407 109.344 40.3247L111.696 44.5967Q109.632 45.8927 107.136 46.6367Q104.64 47.3807 102.24 47.3807ZM154.752 47.3807Q152.928 47.3807 151.488 46.8287Q150.048 46.2767 149.04 45.2927Q148.032 44.3087 147.48 43.0127Q146.928 41.7167 146.928 40.1807Q146.928 38.1647 147.792 36.6527Q148.656 35.1407 150.552 34.0847Q152.448 33.0287 155.424 32.3807Q158.4 31.7327 162.624 31.4927Q162.432 29.8607 161.208 28.9487Q159.984 28.0367 157.536 28.0367Q155.808 28.0367 154.056 28.6367Q152.304 29.2367 150.288 30.2447L147.792 25.6367Q150.24 24.2447 153.048 23.3327Q155.856 22.4207 158.928 22.4207Q163.92 22.4207 166.8 25.0607Q169.68 27.7007 169.68 33.1727L169.68 46.8047L163.92 46.8047L163.392 44.1167L163.2 44.1167Q161.376 45.5087 159.216 46.4447Q157.056 47.3807 154.752 47.3807ZM101.664 27.7967Q99.552 27.7967 98.136 28.9007Q96.72 30.0047 96.192 32.2607L106.368 32.2607Q105.84 27.7967 101.664 27.7967ZM157.008 41.9087Q158.592 41.9087 159.984 41.2607Q161.376 40.6127 162.624 39.6527L162.624 35.7167Q159.984 35.8607 158.256 36.1967Q156.528 36.5327 155.52 37.0367Q154.512 37.5407 154.104 38.2127Q153.696 38.8847 153.696 39.6527Q153.696 40.8047 154.584 41.3567Q155.472 41.9087 157.008 41.9087Z" />
  </g>
</svg>