<?xml version="1.0" encoding="utf-8"?>
<svg width="291px" height="63px" viewBox="0 0 291 63" version="1.1" xmlns:xlink="http://www.w3.org/1999/xlink" xmlns="http://www.w3.org/2000/svg">
  <defs>
    <filter filterUnits="userSpaceOnUse" color-interpolation-filters="sRGB" id="filter_1">
      <feFlood flood-opacity="0" result="BackgroundImageFix" />
      <feColorMatrix in="SourceAlpha" type="matrix" values="0 0 0 0 0 0 0 0 0 0 0 0 0 0 0 0 0 0 127 0" />
      <feOffset dx="-3" dy="3" />
      <feGaussianBlur stdDeviation="0" />
      <feColorMatrix type="matrix" values="0 0 0 0 0.9098039 0 0 0 0 0.54509807 0 0 0 0 1 0 0 0 1 0" />
      <feBlend mode="normal" in2="BackgroundImageFix" result="effect0_dropShadow" />
      <feBlend mode="normal" in="SourceGraphic" in2="effect0_dropShadow" result="shape" />
    </filter>
  </defs>
  <g id="XelaDEV" fill="#FFFFFF" filter="url(#filter_1)" transform="translate(3 0)">
    <path d="M48.144 12.7247L32.352 54.4847L38.256 54.4847L54.048 12.7247L48.144 12.7247ZM134.16 47.3807Q129.648 47.3807 127.368 44.7167Q125.088 42.0527 125.088 37.4927L125.088 18.7247L117.6 18.7247L117.6 13.1567L132.144 13.1567L132.144 37.7807Q132.144 38.8847 132.456 39.6287Q132.768 40.3727 133.32 40.8287Q133.872 41.2847 134.568 41.4767Q135.264 41.6687 136.032 41.6687Q136.848 41.6687 137.736 41.5007Q138.624 41.3327 139.728 40.9007L141.312 46.0847Q140.352 46.3727 139.536 46.6127Q138.72 46.8527 137.904 47.0207Q137.088 47.1887 136.176 47.2847Q135.264 47.3807 134.16 47.3807ZM58.464 46.8047L67.584 30.7247L58.992 15.5087L66.912 15.5087L69.936 21.4127Q70.464 22.5167 71.04 23.7407Q71.616 24.9647 72.336 26.4527L72.528 26.4527Q73.104 24.9647 73.608 23.7407Q74.112 22.5167 74.64 21.4127L77.424 15.5087L85.008 15.5087L76.416 31.0607L85.536 46.8047L77.664 46.8047L74.256 40.4207Q73.584 39.1727 73.008 37.9487Q72.432 36.7247 71.76 35.2847L71.568 35.2847Q70.992 36.7247 70.416 37.9487Q69.84 39.1727 69.264 40.4207L66 46.8047L58.464 46.8047ZM176.16 46.8047L176.16 15.5087L184.8 15.5087Q188.208 15.5087 190.992 16.4207Q193.776 17.3327 195.744 19.2287Q197.712 21.1247 198.792 24.0527Q199.872 26.9807 199.872 31.0127Q199.872 35.0447 198.816 38.0207Q197.76 40.9967 195.816 42.9407Q193.872 44.8847 191.184 45.8447C189.392 46.4847 187.408 46.8047 185.232 46.8047L176.16 46.8047ZM206.016 15.5087L206.016 46.8047L227.232 46.8047L227.232 40.8527L213.12 40.8527L213.12 33.6527L224.688 33.6527L224.688 27.7487L213.12 27.7487L213.12 21.4607L226.752 21.4607L226.752 15.5087L206.016 15.5087ZM240.576 46.8047L231.12 15.5087L238.608 15.5087L242.352 30.1007Q243.072 32.6927 243.624 35.1167Q244.176 37.5407 244.848 40.1327L245.04 40.1327Q245.76 37.5407 246.336 35.1167Q246.912 32.6927 247.584 30.1007L251.28 15.5087L258.48 15.5087L249.072 46.8047L240.576 46.8047ZM5.568 33.3167L24.096 45.3167L24.096 38.9327L11.376 30.9647L11.376 30.7727L24.096 22.8047L24.096 16.4207L5.568 28.4207L5.568 33.3167ZM263.904 38.9327L263.904 45.3167L282.432 33.3167L282.432 28.4207L263.904 16.4207L263.904 22.8047L276.624 30.7727L276.624 30.9647L263.904 38.9327ZM183.264 41.0927L184.416 41.0927Q186.24 41.0927 187.752 40.5647Q189.264 40.0367 190.344 38.8607Q191.424 37.6847 192.024 35.7647Q192.624 33.8447 192.624 31.0127Q192.624 28.2287 192.024 26.3327Q191.424 24.4367 190.344 23.3087Q189.264 22.1807 187.752 21.7007Q186.24 21.2207 184.416 21.2207L183.264 21.2207L183.264 41.0927ZM97.032 46.5407Q99.456 47.3807 102.24 47.3807Q104.64 47.3807 107.136 46.6367Q109.632 45.8927 111.696 44.5967L109.344 40.3247Q107.76 41.1407 106.296 41.5727Q104.832 42.0047 103.2 42.0047Q100.272 42.0047 98.448 40.8047Q96.624 39.6047 96.096 37.0127L112.32 37.0127Q112.416 36.5807 112.536 35.6927Q112.656 34.8047 112.656 33.8447Q112.656 31.3967 111.936 29.3087Q111.216 27.2207 109.8 25.6847Q108.384 24.1487 106.272 23.2847Q104.16 22.4207 101.424 22.4207Q99.024 22.4207 96.792 23.2607Q94.56 24.1007 92.832 25.7087Q91.104 27.3167 90.072 29.6447Q89.04 31.9727 89.04 34.9007Q89.04 37.8767 90.048 40.2047Q91.056 42.5327 92.832 44.1167Q94.608 45.7007 97.032 46.5407ZM151.488 46.8287Q152.928 47.3807 154.752 47.3807Q157.056 47.3807 159.216 46.4447Q161.376 45.5087 163.2 44.1167L163.392 44.1167L163.92 46.8047L169.68 46.8047L169.68 33.1727Q169.68 27.7007 166.8 25.0607Q163.92 22.4207 158.928 22.4207Q155.856 22.4207 153.048 23.3327Q150.24 24.2447 147.792 25.6367L150.288 30.2447Q152.304 29.2367 154.056 28.6367Q155.808 28.0367 157.536 28.0367Q159.984 28.0367 161.208 28.9487Q162.432 29.8607 162.624 31.4927Q158.4 31.7327 155.424 32.3807Q152.448 33.0287 150.552 34.0847Q148.656 35.1407 147.792 36.6527Q146.928 38.1647 146.928 40.1807Q146.928 41.7167 147.48 43.0127Q148.032 44.3087 149.04 45.2927Q150.048 46.2767 151.488 46.8287ZM98.136 28.9007Q99.552 27.7967 101.664 27.7967Q105.84 27.7967 106.368 32.2607L96.192 32.2607Q96.72 30.0047 98.136 28.9007ZM159.984 41.2607Q158.592 41.9087 157.008 41.9087Q155.472 41.9087 154.584 41.3567Q153.696 40.8047 153.696 39.6527Q153.696 38.8847 154.104 38.2127Q154.512 37.5407 155.52 37.0367Q156.528 36.5327 158.256 36.1967Q159.984 35.8607 162.624 35.7167L162.624 39.6527Q161.376 40.6127 159.984 41.2607Z" />
  </g>
</svg>