<svg width="230" height="32" viewBox="0 0 230 32" fill="none" xmlns="http://www.w3.org/2000/svg">
<path d="M13.928 24.596L0.248 15.524V12.572L13.928 3.5V7.352L3.74 13.976V14.12L13.928 20.744V24.596ZM20.6819 31.76L32.5259 0.439999H36.0899L24.2459 31.76H20.6819ZM41.0079 26L47.4159 16.82L41.4399 8.324H45.9399L48.2439 11.672C48.5319 12.152 48.8439 12.656 49.1799 13.184C49.5399 13.688 49.8759 14.192 50.1879 14.696H50.3319C50.5959 14.192 50.8839 13.676 51.1959 13.148C51.5079 12.62 51.7959 12.116 52.0599 11.636L54.1479 8.324H58.5039L52.4919 17.252L58.9359 26H54.4359L51.8799 22.508C51.5439 22.028 51.1839 21.512 50.7999 20.96C50.4399 20.408 50.0799 19.88 49.7199 19.376H49.5759C49.2639 19.88 48.9399 20.396 48.6039 20.924C48.2919 21.452 47.9799 21.992 47.6679 22.544L45.3639 26H41.0079ZM72.6378 26.432C70.8378 26.432 69.2058 26.072 67.7418 25.352C66.2778 24.608 65.1138 23.552 64.2498 22.184C63.3858 20.792 62.9538 19.112 62.9538 17.144C62.9538 15.224 63.3858 13.58 64.2498 12.212C65.1138 10.82 66.2418 9.752 67.6338 9.008C69.0258 8.264 70.5138 7.892 72.0978 7.892C73.8498 7.892 75.3258 8.252 76.5258 8.972C77.7498 9.692 78.6738 10.688 79.2978 11.96C79.9458 13.208 80.2698 14.648 80.2698 16.28C80.2698 16.688 80.2458 17.084 80.1978 17.468C80.1738 17.828 80.1378 18.128 80.0898 18.368H65.9418V15.416H77.4258L76.6338 16.352C76.6338 14.6 76.2378 13.292 75.4458 12.428C74.6778 11.54 73.5978 11.096 72.2058 11.096C71.2218 11.096 70.3338 11.324 69.5418 11.78C68.7738 12.236 68.1618 12.92 67.7058 13.832C67.2498 14.72 67.0218 15.824 67.0218 17.144C67.0218 18.512 67.2738 19.64 67.7778 20.528C68.3058 21.416 69.0258 22.088 69.9378 22.544C70.8738 23 71.9538 23.228 73.1778 23.228C74.1138 23.228 74.9778 23.096 75.7698 22.832C76.5618 22.568 77.3538 22.208 78.1458 21.752L79.5498 24.344C78.6138 24.944 77.5578 25.448 76.3818 25.856C75.2058 26.24 73.9578 26.432 72.6378 26.432ZM96.7438 26.432C94.7038 26.432 93.1438 25.832 92.0638 24.632C91.0078 23.408 90.4798 21.716 90.4798 19.556V3.86H84.7197V0.583999H94.6198V19.772C94.6198 20.972 94.9198 21.824 95.5198 22.328C96.1438 22.808 96.8998 23.048 97.7878 23.048C98.2438 23.048 98.7118 23 99.1918 22.904C99.6718 22.784 100.212 22.604 100.812 22.364L101.784 25.424C100.944 25.712 100.152 25.952 99.4078 26.144C98.6878 26.336 97.7998 26.432 96.7438 26.432ZM112.39 26.432C111.238 26.432 110.218 26.216 109.33 25.784C108.442 25.328 107.746 24.716 107.242 23.948C106.738 23.18 106.486 22.28 106.486 21.248C106.486 19.28 107.422 17.78 109.294 16.748C111.19 15.692 114.322 15.008 118.69 14.696C118.642 14.048 118.462 13.46 118.15 12.932C117.862 12.404 117.418 11.996 116.818 11.708C116.218 11.396 115.438 11.24 114.478 11.24C113.806 11.24 113.146 11.324 112.498 11.492C111.85 11.66 111.202 11.888 110.554 12.176C109.93 12.464 109.306 12.776 108.682 13.112L107.17 10.34C107.89 9.908 108.682 9.512 109.546 9.152C110.41 8.768 111.322 8.468 112.282 8.252C113.242 8.012 114.226 7.892 115.234 7.892C116.89 7.892 118.27 8.192 119.374 8.792C120.502 9.368 121.354 10.232 121.93 11.384C122.53 12.512 122.83 13.892 122.83 15.524V26H119.446L119.122 23.804H119.014C118.078 24.524 117.034 25.148 115.882 25.676C114.754 26.18 113.59 26.432 112.39 26.432ZM113.65 23.192C114.538 23.192 115.39 23 116.206 22.616C117.046 22.208 117.874 21.68 118.69 21.032V17.288C116.578 17.432 114.922 17.672 113.722 18.008C112.522 18.32 111.682 18.728 111.202 19.232C110.722 19.736 110.482 20.3 110.482 20.924C110.482 21.452 110.626 21.884 110.914 22.22C111.202 22.556 111.574 22.808 112.03 22.976C112.51 23.12 113.05 23.192 113.65 23.192ZM128.324 15.632V12.608H144.308V15.632H128.324ZM156.57 26.432C154.314 26.432 152.49 25.616 151.098 23.984C149.706 22.352 149.01 20.084 149.01 17.18C149.01 15.26 149.382 13.604 150.126 12.212C150.87 10.82 151.842 9.752 153.042 9.008C154.242 8.264 155.502 7.892 156.822 7.892C157.83 7.892 158.718 8.072 159.486 8.432C160.278 8.792 161.01 9.308 161.682 9.98H161.79L161.574 6.992V0.583999H165.75V26H162.33L162.006 23.948H161.898C161.226 24.62 160.422 25.208 159.486 25.712C158.55 26.192 157.578 26.432 156.57 26.432ZM157.578 23.012C158.298 23.012 158.994 22.844 159.666 22.508C160.338 22.148 160.974 21.608 161.574 20.888V12.932C160.95 12.332 160.326 11.912 159.702 11.672C159.078 11.432 158.442 11.312 157.794 11.312C156.978 11.312 156.222 11.54 155.526 11.996C154.854 12.452 154.314 13.112 153.906 13.976C153.498 14.84 153.294 15.896 153.294 17.144C153.294 19.04 153.666 20.492 154.41 21.5C155.178 22.508 156.234 23.012 157.578 23.012ZM180.568 26.432C178.768 26.432 177.136 26.072 175.672 25.352C174.208 24.608 173.044 23.552 172.18 22.184C171.316 20.792 170.884 19.112 170.884 17.144C170.884 15.224 171.316 13.58 172.18 12.212C173.044 10.82 174.172 9.752 175.564 9.008C176.956 8.264 178.444 7.892 180.028 7.892C181.78 7.892 183.256 8.252 184.456 8.972C185.68 9.692 186.604 10.688 187.228 11.96C187.876 13.208 188.2 14.648 188.2 16.28C188.2 16.688 188.176 17.084 188.128 17.468C188.104 17.828 188.068 18.128 188.02 18.368H173.872V15.416H185.356L184.564 16.352C184.564 14.6 184.168 13.292 183.376 12.428C182.608 11.54 181.528 11.096 180.136 11.096C179.152 11.096 178.264 11.324 177.472 11.78C176.704 12.236 176.092 12.92 175.636 13.832C175.18 14.72 174.952 15.824 174.952 17.144C174.952 18.512 175.204 19.64 175.708 20.528C176.236 21.416 176.956 22.088 177.868 22.544C178.804 23 179.884 23.228 181.108 23.228C182.044 23.228 182.908 23.096 183.7 22.832C184.492 22.568 185.284 22.208 186.076 21.752L187.48 24.344C186.544 24.944 185.488 25.448 184.312 25.856C183.136 26.24 181.888 26.432 180.568 26.432ZM198.805 26L191.749 8.324H195.925L199.345 17.504C199.657 18.368 199.957 19.244 200.245 20.132C200.557 21.02 200.845 21.92 201.109 22.832H201.253C201.541 21.92 201.829 21.02 202.117 20.132C202.405 19.244 202.705 18.368 203.017 17.504L206.437 8.324H210.397L203.521 26H198.805ZM215.531 24.596V20.744L225.719 14.12V13.976L215.531 7.352V3.5L229.211 12.572V15.524L215.531 24.596Z" fill="#D6D6D6"/>
</svg>
